<?xml version="1.0" standalone="no"?><svg xmlns="http://www.w3.org/2000/svg" viewBox="0 0 1440 320"><path fill="#43437D" fill-opacity="1" d="M0,32L24,80C48,128,96,224,144,224C192,224,240,128,288,117.3C336,107,384,181,432,186.7C480,192,528,128,576,112C624,96,672,128,720,128C768,128,816,96,864,112C912,128,960,192,1008,197.3C1056,203,1104,149,1152,154.7C1200,160,1248,224,1296,234.7C1344,245,1392,203,1416,181.3L1440,160L1440,320L1416,320C1392,320,1344,320,1296,320C1248,320,1200,320,1152,320C1104,320,1056,320,1008,320C960,320,912,320,864,320C816,320,768,320,720,320C672,320,624,320,576,320C528,320,480,320,432,320C384,320,336,320,288,320C240,320,192,320,144,320C96,320,48,320,24,320L0,320Z"></path></svg>